<?xml version="1.0" ?><!DOCTYPE svg  PUBLIC '-//W3C//DTD SVG 1.1//EN'  'http://www.w3.org/Graphics/SVG/1.1/DTD/svg11.dtd'><svg enable-background="new 0 0 512 512" height="512px" id="Calque_1" version="1.1" viewBox="0 0 512 512" width="512px" xml:space="preserve" xmlns="http://www.w3.org/2000/svg" xmlns:xlink="http://www.w3.org/1999/xlink"><path d="M141.99,92.27v327.46C90.31,383.679,56.5,323.79,56.5,256S90.31,128.32,141.99,92.27z"/><path d="M248,215h-18.67V96.32c5.34-2,13.34-2.67,22.67-2.67c36,0,51.34,25.34,51.34,58.01C303.34,188.33,279.34,215,248,215z"/><path d="M313.34,348.34c0,46-29.34,67.34-64.67,67.34c-8,0-14,0-19.34-1.34V279.67H248C282.67,280.33,313.34,303.67,313.34,348.34z"/><path d="M395.72,398.4c5.431-14.341,8.29-30.5,8.29-48.73c0-49.33-28-92.67-80-107.34v-2.67c44.67-19.33,65.33-58,65.33-98  c0-13.55-1.87-26.84-5.939-39.19c44.05,36.6,72.1,91.79,72.1,153.53C455.5,311.769,432.611,362.2,395.72,398.4z"/><g><path d="M256,495.5c-63.973,0-124.116-24.912-169.352-70.148C41.413,380.116,16.5,319.972,16.5,256S41.413,131.884,86.648,86.648   C131.884,41.412,192.028,16.5,256,16.5s124.116,24.913,169.352,70.148C470.588,131.884,495.5,192.027,495.5,256   s-24.912,124.116-70.148,169.352C380.116,470.588,319.973,495.5,256,495.5z M256,36.5C134.968,36.5,36.5,134.967,36.5,256   c0,121.033,98.467,219.5,219.5,219.5c121.033,0,219.5-98.467,219.5-219.5C475.5,134.967,377.033,36.5,256,36.5z"/></g></svg>