<?xml version="1.0" standalone="no"?>
<!DOCTYPE svg PUBLIC "-//W3C//DTD SVG 20010904//EN"
 "http://www.w3.org/TR/2001/REC-SVG-20010904/DTD/svg10.dtd">
<svg version="1.0" xmlns="http://www.w3.org/2000/svg"
 width="382.000000pt" height="382.000000pt" viewBox="0 0 382.000000 382.000000"
 preserveAspectRatio="xMidYMid meet">
<metadata>
Created by potrace 1.11, written by Peter Selinger 2001-2013
</metadata>
<g transform="translate(0.000000,382.000000) scale(0.100000,-0.100000)"
fill="#000000" stroke="none">
<path d="M460 1910 l0 -1911 843 4 c463 2 853 6 867 10 14 3 43 8 65 11 178
23 343 68 477 130 31 14 59 26 63 26 12 0 163 95 210 133 135 108 245 257 308
417 27 68 29 76 51 199 13 73 15 316 2 389 -34 203 -136 374 -291 492 -117 89
-326 176 -487 204 -43 8 -43 30 0 41 118 28 287 129 373 222 98 108 155 213
200 368 19 67 23 104 24 225 0 179 -13 267 -55 357 -11 24 -20 46 -20 49 0 21
-118 178 -169 226 -196 181 -427 262 -881 308 -41 4 -414 8 -827 9 l-753 2 0
-1911z m1400 1236 c41 -3 86 -8 100 -10 132 -27 218 -65 273 -120 135 -135
125 -430 -20 -581 -60 -63 -116 -96 -213 -124 -73 -22 -103 -24 -387 -28
l-291 -5 0 435 -1 436 47 3 c70 4 406 0 492 -6z m185 -1491 c318 -57 458 -188
469 -438 12 -298 -164 -491 -485 -533 -24 -3 -55 -7 -69 -10 -20 -3 -455 -6
-607 -4 l-32 0 0 501 1 501 342 -5 c187 -3 359 -8 381 -12z"/>
</g>
</svg>
