<?xml version="1.0" standalone="no"?>
<!DOCTYPE svg PUBLIC "-//W3C//DTD SVG 20010904//EN"
 "http://www.w3.org/TR/2001/REC-SVG-20010904/DTD/svg10.dtd">
<svg version="1.0" xmlns="http://www.w3.org/2000/svg"
 width="120.000000pt" height="120.000000pt" viewBox="0 0 120.000000 120.000000"
 preserveAspectRatio="xMidYMid meet">
<metadata>
Created by potrace 1.11, written by Peter Selinger 2001-2013
</metadata>
<g transform="translate(0.000000,120.000000) scale(0.100000,-0.100000)"
fill="#000000" stroke="none">
<path d="M125 1191 c-13 -23 9 -31 81 -31 l74 0 0 -560 0 -559 -77 -3 c-61 -2
-78 -6 -78 -18 0 -13 43 -15 322 -17 297 -2 326 -1 380 18 121 41 213 169 213
296 0 77 -38 168 -91 222 -47 47 -121 91 -156 91 -14 1 -11 6 12 23 92 68 130
141 130 247 0 59 -5 85 -24 123 -29 59 -90 120 -151 150 -43 21 -58 22 -337
25 -197 2 -293 0 -298 -7z m625 -55 c49 -26 98 -74 123 -121 28 -54 30 -174 3
-225 -30 -58 -86 -109 -143 -130 -46 -17 -78 -20 -233 -20 l-180 0 0 261 0
261 198 -4 c169 -3 202 -6 232 -22z m59 -552 c189 -56 252 -307 114 -455 -74
-80 -106 -87 -375 -88 l-228 -2 0 281 0 280 218 0 c169 0 230 -4 271 -16z"/>
</g>
</svg>
